<svg width="9" height="12" viewBox="0 0 9 12" fill="none" xmlns="http://www.w3.org/2000/svg">
<path d="M4.22007 0.00252135C4.36589 0.00151281 4.51171 0.000504269 4.657 0C4.81651 0.0216836 4.9797 0.0247092 5.13289 0.0827002C5.28976 0.158845 5.44401 0.239024 5.60141 0.31416C5.67827 0.372151 5.76671 0.411988 5.84357 0.470483C5.91411 0.523432 5.98833 0.572346 6.05519 0.629833C6.17258 0.717575 6.27524 0.820446 6.37841 0.923317C6.43106 0.972736 6.46685 1.03627 6.52055 1.08468C6.62373 1.1815 6.71164 1.29093 6.80166 1.39884C6.8801 1.48356 6.9438 1.57887 7.00644 1.67468C7.05119 1.74528 7.09962 1.81335 7.1491 1.88093C7.26755 2.05439 7.38968 2.22585 7.47549 2.41848C7.54708 2.54001 7.61604 2.66305 7.68764 2.78458C7.8482 3.0942 7.98875 3.4129 8.12826 3.7321C8.17458 3.88338 8.24881 4.02457 8.29934 4.17485C8.32988 4.27772 8.37883 4.37353 8.41042 4.4759C8.42516 4.53691 8.44359 4.59591 8.46622 4.65441C8.52097 4.82132 8.57045 4.98975 8.62415 5.15716C8.65047 5.29886 8.69522 5.43653 8.72891 5.57672C8.77629 5.74111 8.81472 5.90752 8.83788 6.07645C8.8463 6.13696 8.86209 6.19596 8.87473 6.25597C8.89526 6.34169 8.90105 6.42944 8.91895 6.51567C8.93421 6.673 8.9658 6.82831 8.97106 6.98716C8.96633 7.14399 9.01107 7.29779 8.99739 7.45462C9.00844 7.60338 8.97686 7.75012 8.97001 7.89787C8.94158 8.04108 8.93421 8.18732 8.9021 8.33003C8.85999 8.49845 8.82261 8.66789 8.76734 8.83329C8.71785 8.99768 8.66416 9.16006 8.58519 9.31335C8.52939 9.41774 8.47359 9.52262 8.42885 9.63256C8.40305 9.68853 8.36304 9.73643 8.33251 9.78989C8.31724 9.8146 8.3025 9.83981 8.28566 9.86402C8.26829 9.88671 8.25618 9.91192 8.24407 9.93764C8.23986 9.94621 8.23459 9.95478 8.22933 9.96235C8.21143 9.98504 8.1909 10.0057 8.17563 10.0304C8.16511 10.0471 8.15352 10.0627 8.14142 10.0778C8.10825 10.1197 8.07667 10.163 8.04508 10.2064C8.04034 10.215 8.03455 10.2231 8.02823 10.2311C8.01244 10.2508 7.9956 10.2689 7.98138 10.2901C7.87241 10.4601 7.72659 10.5972 7.57814 10.7324C7.55919 10.7505 7.54024 10.7692 7.52234 10.7878C7.37125 10.9356 7.18964 11.0485 7.03803 11.1958C6.89273 11.2845 6.74902 11.3753 6.59688 11.453C6.31261 11.6042 6.01518 11.7238 5.70301 11.8075C5.53824 11.8771 5.36504 11.9159 5.18764 11.9391C5.04445 11.9688 4.89758 11.9729 4.75334 11.9946C4.60646 12.0006 4.45959 12.0016 4.31272 11.9976C4.16795 11.9774 4.02055 11.9769 3.87631 11.9482C3.69838 11.9265 3.52413 11.8912 3.35831 11.8231C3.04508 11.7424 2.74555 11.6285 2.45917 11.4802C2.30756 11.4025 2.16016 11.3163 2.01434 11.2286C1.8601 11.0838 1.67795 10.9724 1.52424 10.8267C1.50581 10.8085 1.48739 10.7899 1.46791 10.7722C1.31209 10.6411 1.16785 10.4999 1.05414 10.3305C1.04414 10.3184 1.03413 10.3063 1.02466 10.2942C0.90516 10.1414 0.78724 9.98706 0.682481 9.82367C0.658265 9.77627 0.626154 9.73341 0.602991 9.6855C0.558245 9.57456 0.497179 9.47169 0.441378 9.3663C0.361361 9.21401 0.303454 9.05315 0.252918 8.88926C0.198696 8.73092 0.156054 8.57006 0.110782 8.4092C0.0749855 8.26044 0.0691948 8.10714 0.0370827 7.95788C0.0291862 7.81013 -0.00608444 7.66389 0.00339127 7.51513C-0.0118752 7.3583 0.0297127 7.20349 0.0233955 7.04717C0.0265541 6.88883 0.0544548 6.7325 0.0686684 6.57517C0.0849876 6.48944 0.0897255 6.40221 0.109203 6.31698C0.120785 6.2595 0.135525 6.20201 0.143948 6.14402C0.155003 6.11124 0.159213 6.07695 0.159213 6.04266C0.159213 6.02501 0.161846 6.00787 0.164478 5.99022C0.18764 5.86818 0.218699 5.74817 0.247653 5.62765C0.288188 5.48998 0.307139 5.34778 0.343463 5.2091C0.400316 5.0432 0.440852 4.87276 0.496126 4.70685C0.518236 4.64836 0.536661 4.58885 0.549295 4.52834C0.580355 4.42597 0.625628 4.32815 0.656159 4.22527C0.705644 4.07551 0.775659 3.9328 0.820931 3.78101C0.958329 3.4608 1.09204 3.13908 1.24839 2.82693C1.31472 2.70339 1.38421 2.58186 1.45475 2.46083C1.47791 2.42503 1.49002 2.38469 1.50634 2.34637C1.58793 2.19761 1.68322 2.05692 1.7764 1.91522C1.82535 1.84815 1.87168 1.77906 1.91537 1.70796C1.97749 1.61215 2.03803 1.51483 2.11647 1.4296C2.20543 1.32119 2.29071 1.20924 2.39337 1.11191C2.44706 1.0635 2.48128 0.998454 2.5334 0.948531C2.63605 0.845156 2.73554 0.739259 2.85241 0.650508C2.91927 0.593021 2.99139 0.54209 3.06193 0.488637C3.13826 0.430142 3.22459 0.387279 3.30145 0.329288C3.4578 0.253648 3.60941 0.16893 3.76523 0.0922813C3.91 0.031769 4.06688 0.0277348 4.21901 0.00302562L4.22007 0.00252135Z" fill="url(#paint0_linear_31_9)"/>
<defs>
<linearGradient id="paint0_linear_31_9" x1="4.38185" y1="0.105148" x2="4.50516" y2="8.93207" gradientUnits="userSpaceOnUse">
<stop stop-color="#67A45D"/>
<stop offset="1" stop-color="#96B675"/>
</linearGradient>
</defs>
</svg>
