<?xml version="1.0" encoding="UTF-8"?>
<svg id="_Слой_2" data-name="Слой 2" xmlns="http://www.w3.org/2000/svg" viewBox="0 0 511.32 511.32">
  <defs>
    <style>
      .cls-1 {
        fill: #67a35d;
      }
    </style>
  </defs>
  <g id="_Слой_1-2" data-name="Слой 1">
    <path class="cls-1" d="M503.67,481.02c-48.04-47.95-96-95.98-144.08-143.9-2.64-2.63-2.81-4.05-.38-7.1,38.05-47.97,52.6-102.3,42.3-162.69C387.1,82.85,320.12,16.88,235.56,2.76c-4.95-.83-10.19-.35-14.85-2.76h-3c-.67,.63-1.33,.63-2,0h-3.99c-2,.82-4,.82-5.99,0h-4c-2.33,.82-4.66,.82-6.99,0h-10.98c-.39,.33-.83,.49-1.35,.51h-.03c-23.87,.76-46.06,7.97-67.39,18.03-24.17,11.4-45.11,27.18-63.17,47C31.18,88.2,16.6,114.14,7.51,143.3c-4.12,13.2-6.59,26.68-7.51,40.46v6.99c.84,2.66,.84,5.32,0,7.99v6.99c.82,1.99,.82,3.99,0,5.99v9.98c1.24,.45,.95,1.59,1.11,2.51,1.32,7.7,2.29,15.46,4,23.07,19.48,86.5,95.07,151.46,182.99,156.99,52.87,3.33,100.19-11.6,141.55-44.79,3.45-2.76,4.96-2.46,7.88,.47,47.43,47.63,95.01,95.12,142.5,142.7,3.41,3.42,6.89,6.63,11.32,8.67h7.99c6.89-1.1,10.88-5.09,11.98-11.98v-6.99c-1.41-4.55-4.32-8.01-7.65-11.33ZM202.77,31.97c93.87,.22,169.95,76.53,169.93,170.43-.02,94.2-76.33,170.45-170.45,170.32-94.14-.14-170.45-76.58-170.29-170.58,.16-93.94,76.9-170.39,170.81-170.17Z"/>
  </g>
</svg>