<?xml version="1.0" encoding="UTF-8"?>
<svg id="_Слой_2" data-name="Слой 2" xmlns="http://www.w3.org/2000/svg" xmlns:xlink="http://www.w3.org/1999/xlink" viewBox="0 0 522.11 170.95">
  <defs>
    <style>
      .cls-1 {
        fill: #fff;
      }

      .cls-2 {
        fill: url(#_Безымянный_градиент_23);
      }
    </style>
    <linearGradient id="_Безымянный_градиент_23" data-name="Безымянный градиент 23" x1="86.58" y1="87" x2="88.41" y2="323.56" gradientTransform="translate(-61.88 150.51) rotate(-90.38) scale(.72 .74)" gradientUnits="userSpaceOnUse">
      <stop offset="0" stop-color="#67a45d"/>
      <stop offset="1" stop-color="#96b675"/>
    </linearGradient>
  </defs>
  <g id="_Слой_2-2" data-name="Слой 2">
    <g>
      <path class="cls-2" d="M.05,90.82c-.02-2.77-.04-5.54-.05-8.3,.43-3.03,.49-6.13,1.64-9.04,1.51-2.98,3.1-5.91,4.59-8.9,1.15-1.46,1.94-3.14,3.1-4.6,1.05-1.34,2.02-2.75,3.16-4.02,1.74-2.23,3.78-4.18,5.82-6.14,.98-1,2.24-1.68,3.2-2.7,1.92-1.96,4.09-3.63,6.23-5.34,1.68-1.49,3.57-2.7,5.47-3.89,1.4-.85,2.75-1.77,4.09-2.71,3.44-2.25,6.84-4.57,10.66-6.2,2.41-1.36,4.85-2.67,7.26-4.03,6.14-3.05,12.46-5.72,18.79-8.37,3-.88,5.8-2.29,8.78-3.25,2.04-.58,3.94-1.51,5.97-2.11,1.21-.28,2.38-.63,3.54-1.06,3.31-1.04,6.65-1.98,9.97-3,2.81-.5,5.54-1.35,8.32-1.99,3.26-.9,6.56-1.63,9.91-2.07,1.2-.16,2.37-.46,3.56-.7,1.7-.39,3.44-.5,5.15-.84,3.12-.29,6.2-.89,9.35-.99,3.11,.09,6.16-.76,9.27-.5,2.95-.21,5.86,.39,8.79,.52,2.84,.54,5.74,.68,8.57,1.29,3.34,.8,6.7,1.51,9.98,2.56,3.26,.94,6.48,1.96,9.52,3.46,2.07,1.06,4.15,2.12,6.33,2.97,1.11,.49,2.06,1.25,3.12,1.83,.49,.29,.99,.57,1.47,.89,.45,.33,.95,.56,1.46,.79,.17,.08,.34,.18,.49,.28,.45,.34,.86,.73,1.35,1.02,.33,.2,.64,.42,.94,.65,.83,.63,1.69,1.23,2.55,1.83,.17,.09,.33,.2,.49,.32,.39,.3,.75,.62,1.17,.89,3.37,2.07,6.09,4.84,8.77,7.66,.36,.36,.73,.72,1.1,1.06,2.93,2.87,5.17,6.32,8.09,9.2,1.76,2.76,3.56,5.49,5.1,8.38,3,5.4,5.37,11.05,7.03,16.98,1.38,3.13,2.15,6.42,2.61,9.79,.59,2.72,.67,5.51,1.1,8.25,.12,2.79,.14,5.58,.06,8.37-.4,2.75-.41,5.55-.98,8.29-.43,3.38-1.13,6.69-2.48,9.84-1.6,5.95-3.86,11.64-6.8,17.08-1.54,2.88-3.25,5.68-4.99,8.45-2.87,2.93-5.08,6.39-7.97,9.31-.36,.35-.73,.7-1.08,1.07-2.6,2.96-5.4,5.7-8.76,7.86-.24,.19-.48,.38-.72,.56-3.03,2.27-6.09,4.51-9.33,6.5-.94,.46-1.79,1.07-2.74,1.51-2.2,.85-4.24,2.01-6.33,3.07-3.02,1.52-6.21,2.62-9.46,3.58-3.14,1.03-6.33,1.84-9.52,2.7-2.95,.68-5.99,.79-8.95,1.4-2.93,.15-5.83,.82-8.78,.64-3.11,.29-6.18-.5-9.28-.38-3.14-.06-6.24-.59-9.36-.86-1.7-.31-3.43-.4-5.12-.77-1.14-.22-2.28-.5-3.43-.66-.65-.21-1.33-.29-2.01-.29-.35,0-.69-.05-1.04-.1-2.42-.44-4.8-1.03-7.19-1.58-2.73-.77-5.55-1.13-8.3-1.82-3.29-1.08-6.67-1.85-9.96-2.9-1.16-.42-2.34-.77-3.54-1.01-2.03-.59-3.97-1.45-6.01-2.03-2.97-.94-5.8-2.27-8.81-3.13-6.35-2.61-12.73-5.15-18.92-8.12-2.45-1.26-4.86-2.58-7.26-3.92-.71-.44-1.51-.67-2.27-.98-2.95-1.55-5.74-3.36-8.55-5.13-1.33-.93-2.7-1.81-4.11-2.64-1.9-1.18-3.83-2.33-5.52-3.82-2.15-1.69-4.37-3.31-6.3-5.26-.96-1.02-2.25-1.67-3.24-2.66-2.05-1.95-4.15-3.84-5.91-6.06-1.14-1.27-2.15-2.64-3.21-3.98-1.16-1.45-2.01-3.09-3.16-4.55-1.5-2.97-3.18-5.85-4.7-8.81-1.2-2.75-1.28-5.73-1.77-8.62Z"/>
      <g>
        <path class="cls-1" d="M140.17,58.76h7.35l16.36,26.36,16.1-26.36h7.39l-20.25,33.37v30.55h-6.3v-30.55l-20.64-33.37Z"/>
        <path class="cls-1" d="M259.55,69.49l-4.95,4.69c-3.56-3.5-7.47-6.16-11.71-7.97-4.24-1.81-8.38-2.72-12.41-2.72-5.01,0-9.79,1.23-14.32,3.69-4.53,2.46-8.05,5.8-10.54,10.02-2.49,4.21-3.74,8.67-3.74,13.36s1.29,9.38,3.87,13.71c2.58,4.33,6.14,7.74,10.69,10.21,4.55,2.48,9.53,3.71,14.95,3.71,6.58,0,12.14-1.85,16.69-5.56,4.55-3.71,7.24-8.52,8.08-14.43h-20.38v-6.17h27.55c-.06,9.88-2.99,17.72-8.8,23.53s-13.58,8.71-23.31,8.71c-11.82,0-21.18-4.03-28.07-12.08-5.3-6.2-7.95-13.37-7.95-21.51,0-6.05,1.52-11.69,4.56-16.9s7.21-9.29,12.52-12.23,11.3-4.41,17.99-4.41c5.42,0,10.52,.98,15.3,2.93,4.78,1.96,9.44,5.09,13.99,9.41Z"/>
        <path class="cls-1" d="M321.61,75.4v47.28h-6v-8.13c-2.55,3.1-5.41,5.43-8.58,7-3.17,1.56-6.64,2.35-10.41,2.35-6.69,0-12.41-2.43-17.14-7.28-4.74-4.85-7.1-10.76-7.1-17.71s2.39-12.63,7.17-17.47c4.78-4.84,10.53-7.26,17.25-7.26,3.88,0,7.39,.83,10.54,2.48,3.14,1.65,5.9,4.13,8.28,7.43v-8.69h6Zm-24.31,4.65c-3.39,0-6.51,.83-9.38,2.5-2.87,1.66-5.14,4-6.84,7.01-1.69,3.01-2.54,6.19-2.54,9.55s.85,6.51,2.56,9.55,4,5.4,6.88,7.1c2.88,1.69,5.97,2.54,9.27,2.54s6.48-.84,9.46-2.52c2.98-1.68,5.27-3.95,6.88-6.82,1.61-2.86,2.41-6.09,2.41-9.68,0-5.47-1.8-10.04-5.4-13.72-3.6-3.67-8.04-5.51-13.3-5.51Z"/>
        <path class="cls-1" d="M332.99,75.4h6.21v6.91c1.85-2.72,3.81-4.76,5.87-6.11,2.06-1.35,4.2-2.02,6.43-2.02,1.68,0,3.48,.54,5.39,1.61l-3.17,5.13c-1.28-.55-2.35-.83-3.22-.83-2.03,0-3.98,.83-5.87,2.5-1.88,1.67-3.32,4.25-4.3,7.76-.75,2.69-1.13,8.14-1.13,16.34v15.99h-6.21v-47.28Z"/>
        <path class="cls-1" d="M409.26,57.15V122.68h-6v-8.13c-2.55,3.1-5.41,5.43-8.58,7-3.17,1.56-6.64,2.35-10.41,2.35-6.69,0-12.41-2.43-17.14-7.28-4.74-4.85-7.11-10.76-7.11-17.71s2.39-12.63,7.17-17.47c4.78-4.84,10.53-7.26,17.25-7.26,3.88,0,7.39,.83,10.54,2.48,3.14,1.65,5.9,4.13,8.28,7.43v-26.94h6Zm-24.31,22.9c-3.38,0-6.51,.83-9.38,2.5-2.87,1.66-5.14,4-6.84,7.01-1.69,3.01-2.54,6.19-2.54,9.55s.85,6.51,2.56,9.55,4,5.4,6.88,7.1c2.88,1.69,5.97,2.54,9.27,2.54s6.48-.84,9.46-2.52c2.98-1.68,5.27-3.95,6.88-6.82,1.61-2.86,2.41-6.09,2.41-9.68,0-5.47-1.8-10.04-5.4-13.72-3.6-3.67-8.04-5.51-13.3-5.51Z"/>
        <path class="cls-1" d="M462.84,107l5.13,2.69c-1.68,3.3-3.62,5.97-5.83,8-2.2,2.03-4.68,3.57-7.44,4.63-2.76,1.06-5.87,1.59-9.35,1.59-7.71,0-13.74-2.53-18.09-7.58s-6.52-10.77-6.52-17.14c0-6,1.84-11.34,5.52-16.04,4.67-5.97,10.92-8.95,18.75-8.95s14.5,3.06,19.31,9.17c3.42,4.32,5.16,9.71,5.22,16.17h-42.54c.12,5.49,1.87,9.99,5.26,13.51,3.39,3.51,7.59,5.27,12.58,5.27,2.41,0,4.75-.42,7.03-1.26,2.28-.84,4.21-1.95,5.81-3.33,1.6-1.38,3.32-3.62,5.18-6.71Zm0-12.73c-.81-3.24-1.99-5.84-3.55-7.78-1.55-1.94-3.6-3.5-6.16-4.69-2.55-1.19-5.24-1.78-8.05-1.78-4.64,0-8.63,1.49-11.97,4.48-2.44,2.17-4.28,5.43-5.53,9.78h35.24Z"/>
        <path class="cls-1" d="M480.87,75.4h6.08v8.47c2.43-3.24,5.13-5.67,8.08-7.28,2.96-1.61,6.17-2.41,9.65-2.41s6.67,.9,9.41,2.69c2.74,1.8,4.76,4.22,6.06,7.26,1.3,3.04,1.96,7.78,1.96,14.21v24.34h-6.08v-22.55c0-5.45-.23-9.08-.68-10.91-.7-3.13-2.06-5.48-4.06-7.06s-4.61-2.37-7.82-2.37c-3.68,0-6.98,1.22-9.89,3.65-2.91,2.43-4.83,5.45-5.76,9.04-.58,2.35-.87,6.63-.87,12.86v17.34h-6.08v-47.28Z"/>
      </g>
    </g>
  </g>
</svg>